<svg xmlns="http://www.w3.org/2000/svg" xmlns:xlink="http://www.w3.org/1999/xlink" width="41" height="41" viewBox="0 0 41 41">
  <defs>
    <filter id="Path_33" x="0" y="0" width="41" height="41" filterUnits="userSpaceOnUse">
      <feOffset dy="3" input="SourceAlpha"/>
      <feGaussianBlur stdDeviation="3" result="blur"/>
      <feFlood flood-opacity="0.161"/>
      <feComposite operator="in" in2="blur"/>
      <feComposite in="SourceGraphic"/>
    </filter>
  </defs>
  <g id="Group_325" data-name="Group 325" transform="translate(-224 -16290)">
    <g transform="matrix(1, 0, 0, 1, 224, 16290)" filter="url(#Path_33)">
      <path id="Path_33-2" data-name="Path 33" d="M11.5,0A11.5,11.5,0,1,1,0,11.5,11.5,11.5,0,0,1,11.5,0Z" transform="translate(9 6)" fill="#83a09e"/>
    </g>
    <path id="Icon_ionic-ios-arrow-forward" data-name="Icon ionic-ios-arrow-forward" d="M12.7,10.423l3.2-3.2a.6.6,0,0,0,0-.854.609.609,0,0,0-.856,0L11.423,10a.6.6,0,0,0-.018.833l3.641,3.649a.6.6,0,1,0,.856-.854Z" transform="translate(230.836 16297.074)" fill="#fff"/>
  </g>
</svg>
