<svg xmlns="http://www.w3.org/2000/svg" width="43" height="42" viewBox="0 0 43 42">
  <g id="Circle_Button_" data-name="Circle Button " transform="translate(0)">
    <g id="Area_SIZE:MEDIUM_STATE:DEFAULT_STYLE:STYLE2_" data-name="Area [SIZE:MEDIUM][STATE:DEFAULT][STYLE:STYLE2]" transform="translate(0 0)" fill="#fff">
      <path d="M 22 41 L 21 41 C 18.29957962036133 41 15.68045997619629 40.47134017944336 13.21539974212646 39.4287109375 C 10.83393955230713 38.42144012451172 8.694950103759766 36.97922134399414 6.857860088348389 35.14213943481445 C 5.020780086517334 33.30504989624023 3.57856011390686 31.16605949401855 2.571290016174316 28.78459930419922 C 1.52866005897522 26.31954002380371 1 23.70042037963867 1 21 C 1 18.29957962036133 1.52866005897522 15.68045997619629 2.571290016174316 13.21539974212646 C 3.57856011390686 10.83393955230713 5.020780086517334 8.694950103759766 6.857860088348389 6.857860088348389 C 8.694950103759766 5.020780086517334 10.83393955230713 3.57856011390686 13.21539974212646 2.571290016174316 C 15.68045997619629 1.52866005897522 18.29957962036133 1 21 1 L 22 1 C 24.70042037963867 1 27.31954002380371 1.52866005897522 29.78459930419922 2.571290016174316 C 32.16606140136719 3.57856011390686 34.30504989624023 5.020780086517334 36.14213943481445 6.857860088348389 C 37.97922134399414 8.694950103759766 39.42144012451172 10.83393955230713 40.4287109375 13.21539974212646 C 41.47134017944336 15.68045997619629 42 18.29957962036133 42 21 C 42 23.70042037963867 41.47134017944336 26.31954002380371 40.4287109375 28.78459930419922 C 39.42144012451172 31.16605949401855 37.97922134399414 33.30504989624023 36.14213943481445 35.14213943481445 C 34.30504989624023 36.97922134399414 32.16606140136719 38.42144012451172 29.78459930419922 39.4287109375 C 27.31954002380371 40.47134017944336 24.70042037963867 41 22 41 Z" stroke="none"/>
      <path d="M 21 2 C 15.92491912841797 2 11.15360069274902 3.976341247558594 7.564968109130859 7.564968109130859 C 3.976341247558594 11.15360069274902 2 15.92491912841797 2 21 C 2 26.07508087158203 3.976341247558594 30.84640121459961 7.564968109130859 34.43502807617188 C 11.15360069274902 38.02365875244141 15.92491912841797 40 21 40 L 22 40 C 27.07508087158203 40 31.84640121459961 38.02365875244141 35.43502807617188 34.43502807617188 C 39.02365875244141 30.84640121459961 41 26.07508087158203 41 21 C 41 15.92491912841797 39.02365875244141 11.15360069274902 35.43502807617188 7.564968109130859 C 31.84640121459961 3.976341247558594 27.07508087158203 2 22 2 L 21 2 M 21 0 L 22 0 C 33.59798049926758 0 43 9.402019500732422 43 21 C 43 32.59798049926758 33.59798049926758 42 22 42 L 21 42 C 9.402019500732422 42 0 32.59798049926758 0 21 C 0 9.402019500732422 9.402019500732422 0 21 0 Z" stroke="none" fill="#c5c8b3"/>
    </g>
    <g id="Icon_" data-name="Icon " transform="translate(13 12)">
      <rect id="Area_ICON:feather_twitter_SIZE:MEDIUM_STATE:DEFAULT_STYLE:STYLE2_" data-name="Area [ICON:feather/twitter][SIZE:MEDIUM][STATE:DEFAULT][STYLE:STYLE2]" width="18" height="18" transform="translate(0 0)" fill="rgba(253,73,198,0.35)" opacity="0"/>
      <g id="Icon" transform="translate(0.131 2.313)">
        <path id="Path" d="M17.171,2.5a8.1,8.1,0,0,1-2.332,1.136A3.327,3.327,0,0,0,9,5.863v.742A7.917,7.917,0,0,1,2.319,3.241S-.652,9.925,6.032,12.9a8.642,8.642,0,0,1-5.2,1.485c6.684,3.713,14.853,0,14.853-8.54a3.332,3.332,0,0,0-.06-.617A5.727,5.727,0,0,0,17.171,2.5Z" transform="translate(-0.833 -2.491)" fill="none" stroke="#c5c8b3" stroke-linecap="round" stroke-linejoin="round" stroke-width="1.667"/>
      </g>
    </g>
  </g>
</svg>
