<svg id="Illustration" xmlns="http://www.w3.org/2000/svg" width="354.957" height="526.5" viewBox="0 0 354.957 526.5">
  <path id="Path_FILL:STYLE1_BRAND_" data-name="Path [FILL:STYLE1/BRAND]" d="M686.788,269.723a22.837,22.837,0,0,1-15.7-4.165,43.068,43.068,0,0,1-11.258-12.076,78.253,78.253,0,0,1-11.018-25.6,15.007,15.007,0,0,1-14.623,5.088c-8.711-1.956-13.935-12.119-12.236-20.883s8.889-15.713,17.095-19.231,17.35-4.1,26.277-4.079c5.887.013,11.886.288,17.416,2.307s10.6,6.043,12.56,11.592c1.232,3.479,1.191,7.33,2.592,10.745,2.542,6.2,9.136,9.584,15.324,12.153s12.916,5.177,16.565,10.8c4.121,6.345,2.932,15.2-1.61,21.253s-11.835,9.561-19.258,11.028-15.069,1.1-22.626.736" transform="translate(-455.275 -188.775)" fill="#9bb078"/>
  <path id="Path_FILL:STYLE1_TEXT_" data-name="Path [FILL:STYLE1/TEXT]" d="M422.3,437l24.389-10.576-13.234-27.238-19.7,11.526Z" transform="translate(-123.222 42.567)" fill="#c5c8b3"/>
  <path id="Path_FILL:STYLE1_foreground_" data-name="Path [FILL:STYLE1/foreground]" d="M419.742,312.635,443.3,360.547l41.568,84.561,42.858-20.595L480.413,313.748l-.134-13.943-.423-43.387Z" transform="translate(-210.89 27.272)" fill="#9bb078"/>
  <path id="Path_FILL:STYLE1_TEXT_2" data-name="Path [FILL:STYLE1/TEXT]" d="M546.937,416.2l25.048,8.906,8.906-28.944-22.264-5.009Z" transform="translate(-404.878 41.707)" fill="#c5c8b3"/>
  <path id="Path_FILL:STYLE1_TEXT_3" data-name="Path [FILL:STYLE1/TEXT]" d="M711.6,378.362l75.7-21.708-22.264-15.028-58.444,18.368-26.427,6.342a13.059,13.059,0,0,0-8.866,18.048h0a13.06,13.06,0,0,0,18.193,6.1Z" transform="translate(-563.972 -172.47)" fill="#c5c8b3"/>
  <path id="Path_FILL:STYLE1_BACKGROUND_" data-name="Path [FILL:STYLE1/BACKGROUND]" d="M677.241,350.585,707.854,368.4c2.7-22.275-10.616-61.926-27.274-105.2h0a33.287,33.287,0,0,0-13.461,31.437Z" transform="translate(-481.191 -180.84)" fill="#fbfbfb"/>
  <path id="Path_FILL:STYLE1_TEXT_4" data-name="Path [FILL:STYLE1/TEXT]" d="M579.083,388.65l.644,22.847a13.176,13.176,0,0,0,16.58,12.356h0a13.176,13.176,0,0,0,8.572-18.21l-8.541-18.663-26.717-63.453-18.368,6.679Z" transform="translate(-251.117 -174.408)" fill="#c5c8b3"/>
  <path id="Path_FILL:STYLE1_TEXT_5" data-name="Path [FILL:STYLE1/TEXT]" d="M23.934,0A23.934,23.934,0,1,1,0,23.934,23.934,23.934,0,0,1,23.934,0Z" transform="translate(179.63 11.985)" fill="#c5c8b3"/>
  <path id="Path_FILL:STYLE1_TEXT_6" data-name="Path [FILL:STYLE1/TEXT]" d="M505.623,82.251l27.83-13.359-13.914-31.17L496.16,42.175Z" transform="translate(-301.224 4.041)" fill="#c5c8b3"/>
  <path id="Path_FILL:STYLE1_BACKGROUND_2" data-name="Path [FILL:STYLE1/BACKGROUND]" d="M648.261,381.819,705.035,367.9l-11.4-104.5a18.383,18.383,0,0,0-19.939-16.314l-18.755,1.7-25.6,11.689L619.874,270.5l2.887,12.347c-2.691,25.431-.617,47.5,14.169,60.594Z" transform="translate(-426.05 -182.536)" fill="#fbfbfb"/>
  <path id="Path_FILL:STYLE1_BACKGROUND_3" data-name="Path [FILL:STYLE1/BACKGROUND]" d="M629.8,342.15l29.5-7.793-39.55-65.505a42.307,42.307,0,0,0-40.6-20.212h0l15.028,49.538C608.075,308.663,619.749,323.734,629.8,342.15Z" transform="translate(-335.233 -182.385)" fill="#fbfbfb"/>
  <path id="Path_FILL:STYLE1_foreground_2" data-name="Path [FILL:STYLE1/foreground]" d="M604.657,607.811l45.085,13.359c54.9-89.127,133.512-185.178,102.973-249.361l-11.132-26.161-57.887,17.811-3.34,69.02L644.732,488.14Z" transform="translate(-463.711 -172.167)" fill="#9bb078"/>
  <path id="Path_FILL:STYLE1_brand_2" data-name="Path [FILL:STYLE1/brand]" d="M726.889,641.453l40.068-.394a14.432,14.432,0,0,0,14.338-14.432V606.653a4.6,4.6,0,0,0-5.967-4.417c-7.237,2.32-13.163,1.548-17.631-2.658-2.679-2.521-2.991-3.028-6.18-1.193l-18.09,19.76-7.336.473a11.429,11.429,0,0,0-10.662,10.551h0a11.429,11.429,0,0,0,11.461,12.284Z" transform="translate(-608.065 -145.208)" fill="#9bb078"/>
  <path id="Path_FILL:STYLE1_brand_3" data-name="Path [FILL:STYLE1/brand]" d="M583.637,667.678l28.054-28.61a14.432,14.432,0,0,0-.067-20.343L597.5,604.6a4.6,4.6,0,0,0-7.343,1.1c-3.477,6.758-8.213,10.4-14.347,10.588-3.677.111-4.256-.026-5.214,3.526l1.181,26.764-4.853,5.522a11.43,11.43,0,0,0-.078,15h0a11.43,11.43,0,0,0,16.791.582Z" transform="translate(-275.097 -144.571)" fill="#9bb078"/>
  <path id="Path_FILL:STYLE1_BRAND_4" data-name="Path [FILL:STYLE1/BRAND]" d="M668.084,218.394A28.654,28.654,0,0,1,654.2,229.856c-4.066,1.566-9.226,1.955-12.277-1.155-2.211-2.253-2.651-5.72-2.338-8.86.979-9.8,8.347-18.34,17.488-22.013s19.695-2.87,28.818.849c8.608,3.509,16.782,10.7,17.245,19.98.237,4.758-1.485,10,1.069,14.017,1.924,3.028,5.639,4.259,8.966,5.6s6.9,3.457,7.582,6.979a7.81,7.81,0,0,1-2.291,6.658,18.077,18.077,0,0,1-6.155,3.859c-5.427,2.311-11.4,3.751-17.231,2.858s-11.468-4.444-13.749-9.883c-1.757-4.188-1.4-8.915-1.194-13.452s.141-9.37-2.281-13.212-8.048-5.993-11.668-3.25" transform="translate(-463.554 -188.06)" fill="#9bb078"/>
  <path id="Path_FILL:STYLE1_foreground_3" data-name="Path [FILL:STYLE1/foreground]" d="M6.869,23.552H63.615a30.421,30.421,0,1,1,0,13.738H49.066V42.2a6.869,6.869,0,0,1-13.738,0V37.29H25.514V50.047a6.869,6.869,0,0,1-13.738,0V37.29H6.869a6.869,6.869,0,1,1,0-13.738ZM93.225,47.1A16.682,16.682,0,1,0,76.543,30.421,16.7,16.7,0,0,0,93.225,47.1Z" transform="translate(30.421 112.538) rotate(30)" fill="#9bb078"/>
</svg>
