<svg xmlns="http://www.w3.org/2000/svg" width="43" height="42" viewBox="0 0 43 42">
  <g id="Circle_Button_" data-name="Circle Button " transform="translate(0)">
    <g id="Area_SIZE:MEDIUM_STATE:DEFAULT_STYLE:STYLE2_" data-name="Area [SIZE:MEDIUM][STATE:DEFAULT][STYLE:STYLE2]" transform="translate(0 0)" fill="#fff" stroke="#c5c8b3" stroke-width="2">
      <rect width="43" height="42" rx="21" stroke="none"/>
      <rect x="1" y="1" width="41" height="40" rx="20" fill="none"/>
    </g>
    <g id="Icon_" data-name="Icon " transform="translate(12.968 12)">
      <rect id="Area_ICON:custom_google_SIZE:MEDIUM_STATE:DEFAULT_STYLE:STYLE2_" data-name="Area [ICON:custom/google][SIZE:MEDIUM][STATE:DEFAULT][STYLE:STYLE2]" width="18" height="18" transform="translate(0.032 0)" fill="rgba(253,73,198,0.35)" opacity="0"/>
      <g id="Icon" transform="translate(0 0.095)">
        <path id="Path" d="M20.985,10.5h-.718v-.037h-8.02v3.565h5.037a5.351,5.351,0,1,1-1.489-5.775l2.521-2.521a8.881,8.881,0,1,0,2.67,4.768Z" transform="translate(-3.352 -3.337)" fill="none" stroke="#c5c8b3" stroke-linecap="round" stroke-linejoin="round" stroke-width="1.667"/>
        <path id="Path-2" data-name="Path" d="M5.255,8.114l2.939,2.153a5.354,5.354,0,0,1,8.533-2l2.53-2.528a8.926,8.926,0,0,0-14,2.377Z" transform="translate(-4.241 -3.335)" fill="none" stroke="#c5c8b3" stroke-linecap="round" stroke-linejoin="round" stroke-width="1.667"/>
        <path id="Path-3" data-name="Path" d="M13.125,30.508a8.9,8.9,0,0,0,6-2.322l-2.769-2.341A5.351,5.351,0,0,1,8.08,23.378L5.167,25.625A8.935,8.935,0,0,0,13.125,30.508Z" transform="translate(-4.198 -12.687)" fill="none" stroke="#c5c8b3" stroke-linecap="round" stroke-linejoin="round" stroke-width="1.667"/>
        <path id="Path-4" data-name="Path" d="M28.769,16.7h-.72v-.037H20v3.577h5.055a5.383,5.383,0,0,1-1.828,2.491h0l2.768,2.342a8.649,8.649,0,0,0,2.947-6.621A8.97,8.97,0,0,0,28.769,16.7Z" transform="translate(-11.137 -9.577)" fill="none" stroke="#c5c8b3" stroke-linecap="round" stroke-linejoin="round" stroke-width="1.667"/>
      </g>
    </g>
  </g>
</svg>
